<svg width="263" height="287" viewBox="0 0 263 287" fill="none" xmlns="http://www.w3.org/2000/svg">
<g clip-path="url(#clip0_12_5)">
<g clip-path="url(#clip1_12_5)">
<path fill-rule="evenodd" clip-rule="evenodd" d="M260.398 285.708C260.394 285.536 260.424 285.364 260.487 285.203C260.551 285.043 260.646 284.896 260.767 284.773C260.888 284.649 261.033 284.551 261.193 284.484C261.353 284.417 261.525 284.383 261.699 284.383C262.044 284.383 262.375 284.519 262.619 284.761C262.863 285.003 263 285.332 263 285.675C263 286.017 262.863 286.346 262.619 286.588C262.375 286.83 262.044 286.967 261.699 286.967C261.354 286.967 261.023 286.83 260.779 286.588C260.535 286.346 260.398 286.017 260.398 285.675" fill="#585858"/>
<path fill-rule="evenodd" clip-rule="evenodd" d="M234.391 285.708C234.387 285.538 234.416 285.37 234.477 285.211C234.539 285.053 234.631 284.908 234.748 284.785C234.866 284.662 235.007 284.563 235.163 284.494C235.319 284.425 235.488 284.387 235.659 284.383C236.004 284.383 236.335 284.519 236.578 284.761C236.822 285.003 236.959 285.332 236.959 285.675C236.959 286.017 236.822 286.346 236.578 286.588C236.335 286.83 236.004 286.967 235.659 286.967C235.325 286.958 235.008 286.823 234.772 286.589C234.536 286.354 234.4 286.039 234.391 285.708Z" fill="#585858"/>
<path fill-rule="evenodd" clip-rule="evenodd" d="M208.317 285.708C208.312 285.536 208.343 285.364 208.406 285.203C208.469 285.043 208.565 284.896 208.686 284.773C208.807 284.649 208.952 284.551 209.112 284.484C209.272 284.417 209.444 284.383 209.618 284.383C209.963 284.383 210.294 284.519 210.538 284.761C210.782 285.003 210.919 285.332 210.919 285.675C210.919 286.017 210.782 286.346 210.538 286.588C210.294 286.83 209.963 286.967 209.618 286.967C209.273 286.967 208.942 286.83 208.698 286.588C208.454 286.346 208.317 286.017 208.317 285.675" fill="#585858"/>
<path fill-rule="evenodd" clip-rule="evenodd" d="M182.287 285.708C182.283 285.536 182.313 285.364 182.376 285.203C182.44 285.043 182.535 284.896 182.656 284.773C182.777 284.649 182.922 284.551 183.082 284.484C183.242 284.417 183.414 284.383 183.588 284.383C183.933 284.383 184.264 284.519 184.508 284.761C184.752 285.003 184.889 285.332 184.889 285.675C184.889 286.017 184.752 286.346 184.508 286.588C184.264 286.83 183.933 286.967 183.588 286.967C183.243 286.967 182.912 286.83 182.668 286.588C182.424 286.346 182.287 286.017 182.287 285.675" fill="#585858"/>
<path fill-rule="evenodd" clip-rule="evenodd" d="M156.245 285.708C156.245 285.365 156.382 285.037 156.626 284.795C156.87 284.552 157.201 284.416 157.546 284.416C157.891 284.416 158.222 284.552 158.466 284.795C158.71 285.037 158.847 285.365 158.847 285.708C158.847 286.051 158.71 286.379 158.466 286.622C158.222 286.864 157.891 287 157.546 287C157.201 287 156.87 286.864 156.626 286.622C156.382 286.379 156.245 286.051 156.245 285.708Z" fill="#585858"/>
<path fill-rule="evenodd" clip-rule="evenodd" d="M130.205 285.708C130.205 285.365 130.342 285.037 130.586 284.795C130.83 284.552 131.161 284.416 131.506 284.416C131.851 284.416 132.182 284.552 132.426 284.795C132.669 285.037 132.807 285.365 132.807 285.708C132.807 286.051 132.669 286.379 132.426 286.622C132.182 286.864 131.851 287 131.506 287C131.161 287 130.83 286.864 130.586 286.622C130.342 286.379 130.205 286.051 130.205 285.708Z" fill="#585858"/>
<path fill-rule="evenodd" clip-rule="evenodd" d="M104.175 285.708C104.166 285.369 104.292 285.04 104.525 284.792C104.757 284.544 105.079 284.397 105.42 284.383C105.765 284.383 106.096 284.519 106.34 284.761C106.584 285.003 106.721 285.332 106.721 285.675C106.721 286.017 106.584 286.346 106.34 286.588C106.096 286.83 105.765 286.967 105.42 286.967C105.075 286.967 104.744 286.83 104.5 286.588C104.256 286.346 104.119 286.017 104.119 285.675" fill="#585858"/>
<path fill-rule="evenodd" clip-rule="evenodd" d="M78.1345 285.708C78.1345 285.365 78.2715 285.037 78.5155 284.795C78.7595 284.552 79.0903 284.416 79.4353 284.416C79.7804 284.416 80.1114 284.552 80.3553 284.795C80.5993 285.037 80.7363 285.365 80.7363 285.708C80.7363 286.051 80.5993 286.379 80.3553 286.622C80.1114 286.864 79.7804 287 79.4353 287C79.0903 287 78.7595 286.864 78.5155 286.622C78.2715 286.379 78.1345 286.051 78.1345 285.708Z" fill="#585858"/>
<path fill-rule="evenodd" clip-rule="evenodd" d="M52.0926 285.708C52.0926 285.538 52.1264 285.37 52.1918 285.214C52.2571 285.057 52.353 284.915 52.4738 284.795C52.5946 284.675 52.738 284.579 52.8958 284.515C53.0537 284.45 53.2228 284.416 53.3936 284.416C53.5644 284.416 53.7337 284.45 53.8915 284.515C54.0494 284.579 54.1928 284.675 54.3136 284.795C54.4344 284.915 54.5301 285.057 54.5955 285.214C54.6608 285.37 54.6946 285.538 54.6946 285.708C54.6946 285.878 54.6608 286.046 54.5955 286.202C54.5301 286.359 54.4344 286.502 54.3136 286.622C54.1928 286.742 54.0494 286.837 53.8915 286.902C53.7337 286.967 53.5644 287 53.3936 287C53.2228 287 53.0537 286.967 52.8958 286.902C52.738 286.837 52.5946 286.742 52.4738 286.622C52.353 286.502 52.2571 286.359 52.1918 286.202C52.1264 286.046 52.0926 285.878 52.0926 285.708Z" fill="#585858"/>
<path fill-rule="evenodd" clip-rule="evenodd" d="M26.0641 285.708C26.0596 285.536 26.09 285.364 26.1533 285.203C26.2167 285.043 26.3118 284.896 26.433 284.773C26.5543 284.649 26.6993 284.551 26.8593 284.484C27.0194 284.417 27.1913 284.383 27.365 284.383C27.7101 284.383 28.0409 284.519 28.2849 284.761C28.5289 285.003 28.666 285.332 28.666 285.675C28.666 286.017 28.5289 286.346 28.2849 286.588C28.0409 286.83 27.7101 286.967 27.365 286.967C27.02 286.967 26.689 286.83 26.4451 286.588C26.2011 286.346 26.0641 286.017 26.0641 285.675" fill="#585858"/>
<path fill-rule="evenodd" clip-rule="evenodd" d="M0.000488176 285.708C0.000488149 285.365 0.137512 285.037 0.381484 284.795C0.625456 284.552 0.956431 284.416 1.30146 284.416C1.64649 284.416 1.97733 284.552 2.2213 284.795C2.46527 285.037 2.60229 285.365 2.60229 285.708C2.60229 286.051 2.46527 286.379 2.2213 286.622C1.97733 286.864 1.64649 287 1.30146 287C0.956431 287 0.625457 286.864 0.381484 286.622C0.137512 286.379 0.000488204 286.051 0.000488176 285.708Z" fill="#585858"/>
<path fill-rule="evenodd" clip-rule="evenodd" d="M260.398 259.882C260.398 259.539 260.535 259.21 260.779 258.968C261.023 258.726 261.354 258.59 261.699 258.59C262.044 258.59 262.375 258.726 262.619 258.968C262.863 259.21 263 259.539 263 259.882C263 260.051 262.966 260.219 262.901 260.376C262.836 260.533 262.74 260.675 262.619 260.795C262.375 261.037 262.044 261.173 261.699 261.173C261.528 261.173 261.359 261.14 261.201 261.075C261.043 261.01 260.9 260.915 260.779 260.795C260.658 260.675 260.563 260.533 260.497 260.376C260.432 260.219 260.398 260.051 260.398 259.882Z" fill="#585858"/>
<path fill-rule="evenodd" clip-rule="evenodd" d="M234.391 259.882C234.391 259.539 234.528 259.21 234.772 258.968C235.016 258.726 235.347 258.59 235.692 258.59C236.031 258.598 236.354 258.738 236.59 258.98C236.827 259.221 236.96 259.545 236.959 259.882C236.959 260.051 236.926 260.219 236.86 260.376C236.795 260.533 236.699 260.675 236.578 260.795C236.335 261.037 236.004 261.173 235.659 261.173C235.319 261.165 234.997 261.025 234.76 260.783C234.524 260.542 234.391 260.218 234.391 259.882Z" fill="#585858"/>
<path fill-rule="evenodd" clip-rule="evenodd" d="M208.317 259.882C208.317 259.539 208.454 259.21 208.698 258.968C208.942 258.726 209.273 258.59 209.618 258.59C209.963 258.59 210.294 258.726 210.538 258.968C210.782 259.21 210.919 259.539 210.919 259.882C210.919 260.051 210.885 260.219 210.82 260.376C210.754 260.533 210.658 260.675 210.538 260.795C210.294 261.037 209.963 261.173 209.618 261.173C209.447 261.173 209.278 261.14 209.12 261.075C208.962 261.01 208.819 260.915 208.698 260.795C208.577 260.675 208.481 260.533 208.416 260.376C208.351 260.219 208.317 260.051 208.317 259.882Z" fill="#585858"/>
<path fill-rule="evenodd" clip-rule="evenodd" d="M182.287 259.882C182.287 259.539 182.424 259.21 182.668 258.968C182.912 258.726 183.243 258.59 183.588 258.59C183.933 258.59 184.264 258.726 184.508 258.968C184.752 259.21 184.889 259.539 184.889 259.882C184.889 260.051 184.855 260.219 184.79 260.376C184.725 260.533 184.629 260.675 184.508 260.795C184.264 261.037 183.933 261.173 183.588 261.173C183.417 261.173 183.248 261.14 183.09 261.075C182.932 261.01 182.789 260.915 182.668 260.795C182.547 260.675 182.451 260.533 182.386 260.376C182.321 260.219 182.287 260.051 182.287 259.882Z" fill="#585858"/>
<path fill-rule="evenodd" clip-rule="evenodd" d="M156.245 259.882C156.245 259.539 156.382 259.21 156.626 258.968C156.87 258.726 157.201 258.59 157.546 258.59C157.891 258.59 158.222 258.726 158.466 258.968C158.71 259.21 158.847 259.539 158.847 259.882C158.847 260.051 158.813 260.219 158.748 260.376C158.683 260.533 158.587 260.675 158.466 260.795C158.222 261.037 157.891 261.173 157.546 261.173C157.375 261.173 157.206 261.14 157.048 261.075C156.891 261.01 156.747 260.915 156.626 260.795C156.506 260.675 156.41 260.533 156.344 260.376C156.279 260.219 156.245 260.051 156.245 259.882Z" fill="#585858"/>
<path fill-rule="evenodd" clip-rule="evenodd" d="M130.205 259.882C130.205 259.539 130.342 259.21 130.586 258.968C130.83 258.726 131.161 258.59 131.506 258.59C131.851 258.59 132.182 258.726 132.426 258.968C132.669 259.21 132.807 259.539 132.807 259.882C132.807 260.051 132.773 260.219 132.708 260.376C132.642 260.533 132.546 260.675 132.426 260.795C132.182 261.037 131.851 261.173 131.506 261.173C131.335 261.173 131.166 261.14 131.008 261.075C130.85 261.01 130.707 260.915 130.586 260.795C130.465 260.675 130.369 260.533 130.304 260.376C130.238 260.219 130.205 260.051 130.205 259.882Z" fill="#585858"/>
<path fill-rule="evenodd" clip-rule="evenodd" d="M104.175 259.882C104.169 259.544 104.295 259.218 104.528 258.973C104.76 258.727 105.081 258.582 105.42 258.567C105.597 258.56 105.774 258.588 105.94 258.651C106.106 258.714 106.257 258.81 106.384 258.933C106.511 259.056 106.612 259.204 106.679 259.367C106.747 259.53 106.78 259.705 106.777 259.882C106.774 260.054 106.736 260.224 106.666 260.382C106.596 260.54 106.494 260.682 106.368 260.801C106.242 260.919 106.092 261.011 105.93 261.071C105.767 261.131 105.593 261.159 105.42 261.151C105.088 261.137 104.775 260.998 104.544 260.762C104.312 260.526 104.18 260.211 104.175 259.882Z" fill="#585858"/>
<path fill-rule="evenodd" clip-rule="evenodd" d="M78.1343 259.881C78.1343 259.539 78.2713 259.21 78.5153 258.968C78.7593 258.726 79.0901 258.59 79.4351 258.59C79.6069 258.588 79.7773 258.62 79.9365 258.685C80.0956 258.749 80.2404 258.844 80.3624 258.964C80.4843 259.084 80.5812 259.227 80.6472 259.384C80.7133 259.542 80.7473 259.711 80.7473 259.881C80.7473 260.051 80.7137 260.219 80.6483 260.376C80.583 260.533 80.4871 260.675 80.3663 260.795C80.2455 260.915 80.1021 261.01 79.9443 261.075C79.7864 261.14 79.6172 261.173 79.4464 261.173C79.2746 261.175 79.1043 261.142 78.9452 261.078C78.786 261.014 78.6413 260.919 78.5193 260.799C78.3973 260.679 78.3005 260.536 78.2344 260.378C78.1683 260.221 78.1343 260.052 78.1343 259.881Z" fill="#585858"/>
<path fill-rule="evenodd" clip-rule="evenodd" d="M52.0926 259.882C52.0926 259.712 52.1264 259.544 52.1918 259.387C52.2571 259.23 52.353 259.088 52.4738 258.968C52.5946 258.848 52.738 258.753 52.8958 258.688C53.0537 258.623 53.2228 258.59 53.3936 258.59C53.7386 258.59 54.0696 258.726 54.3136 258.968C54.5576 259.21 54.6946 259.539 54.6946 259.882C54.6946 260.051 54.6608 260.219 54.5955 260.376C54.5301 260.533 54.4344 260.675 54.3136 260.795C54.1928 260.915 54.0494 261.01 53.8915 261.075C53.7337 261.14 53.5644 261.173 53.3936 261.173C53.0486 261.173 52.7177 261.037 52.4738 260.795C52.2298 260.553 52.0926 260.224 52.0926 259.882Z" fill="#585858"/>
<path fill-rule="evenodd" clip-rule="evenodd" d="M26.0641 259.882C26.0641 259.539 26.2011 259.21 26.4451 258.968C26.689 258.726 27.02 258.59 27.365 258.59C27.7101 258.59 28.0409 258.726 28.2849 258.968C28.5289 259.21 28.666 259.539 28.666 259.882C28.666 260.051 28.6323 260.219 28.5669 260.376C28.5015 260.533 28.4057 260.675 28.2849 260.795C28.0409 261.037 27.7101 261.173 27.365 261.173C27.02 261.173 26.689 261.037 26.4451 260.795C26.2011 260.553 26.0641 260.224 26.0641 259.882Z" fill="#585858"/>
<path fill-rule="evenodd" clip-rule="evenodd" d="M3.04127e-05 259.882C3.03849e-05 259.539 0.137053 259.21 0.381023 258.968C0.624993 258.726 0.955965 258.59 1.30099 258.59C1.47371 258.587 1.64531 258.618 1.80574 258.681C1.96618 258.745 2.11215 258.84 2.23533 258.96C2.35852 259.08 2.45646 259.224 2.52324 259.382C2.59001 259.54 2.62429 259.71 2.62427 259.882C2.62427 260.051 2.59067 260.219 2.52529 260.376C2.45991 260.533 2.36408 260.675 2.24327 260.795C2.12247 260.915 1.97905 261.01 1.82121 261.075C1.66338 261.14 1.49428 261.173 1.32344 261.173C1.15073 261.176 0.979126 261.145 0.818693 261.082C0.658259 261.018 0.512151 260.923 0.388963 260.803C0.265776 260.683 0.167975 260.539 0.1012 260.381C0.034424 260.223 4.67742e-06 260.053 3.04127e-05 259.882Z" fill="#585858"/>
<path fill-rule="evenodd" clip-rule="evenodd" d="M260.398 233.999C260.398 233.744 260.474 233.494 260.617 233.281C260.76 233.069 260.963 232.903 261.201 232.806C261.439 232.708 261.7 232.682 261.953 232.732C262.205 232.782 262.437 232.905 262.619 233.086C262.801 233.266 262.925 233.497 262.975 233.747C263.025 233.998 262.999 234.258 262.901 234.494C262.802 234.73 262.636 234.931 262.422 235.073C262.208 235.215 261.956 235.291 261.699 235.291C261.354 235.291 261.023 235.155 260.779 234.913C260.535 234.67 260.398 234.342 260.398 233.999Z" fill="#585858"/>
<path fill-rule="evenodd" clip-rule="evenodd" d="M234.392 233.999C234.392 233.744 234.468 233.494 234.611 233.281C234.754 233.069 234.957 232.903 235.195 232.806C235.432 232.708 235.694 232.682 235.946 232.732C236.199 232.782 236.43 232.905 236.612 233.086C236.794 233.266 236.918 233.497 236.968 233.747C237.019 233.998 236.993 234.258 236.894 234.494C236.796 234.73 236.629 234.931 236.415 235.073C236.201 235.215 235.95 235.291 235.692 235.291C235.347 235.291 235.017 235.155 234.773 234.913C234.529 234.67 234.392 234.342 234.392 233.999Z" fill="#585858"/>
<path fill-rule="evenodd" clip-rule="evenodd" d="M208.317 233.999C208.317 233.744 208.393 233.494 208.536 233.281C208.679 233.069 208.882 232.903 209.12 232.806C209.358 232.708 209.619 232.682 209.872 232.732C210.124 232.782 210.356 232.905 210.538 233.086C210.72 233.266 210.844 233.497 210.894 233.747C210.944 233.998 210.918 234.258 210.82 234.494C210.721 234.73 210.554 234.931 210.34 235.073C210.127 235.215 209.875 235.291 209.618 235.291C209.273 235.291 208.942 235.155 208.698 234.913C208.454 234.67 208.317 234.342 208.317 233.999Z" fill="#585858"/>
<path fill-rule="evenodd" clip-rule="evenodd" d="M182.287 233.999C182.287 233.744 182.363 233.494 182.506 233.281C182.649 233.069 182.852 232.903 183.09 232.806C183.328 232.708 183.589 232.682 183.842 232.732C184.094 232.782 184.326 232.905 184.508 233.086C184.69 233.266 184.814 233.497 184.864 233.747C184.914 233.998 184.888 234.258 184.79 234.494C184.691 234.73 184.525 234.931 184.311 235.073C184.097 235.215 183.845 235.291 183.588 235.291C183.243 235.291 182.912 235.155 182.668 234.913C182.424 234.67 182.287 234.342 182.287 233.999Z" fill="#585858"/>
<path fill-rule="evenodd" clip-rule="evenodd" d="M156.245 233.999C156.245 233.744 156.322 233.494 156.465 233.281C156.607 233.069 156.811 232.903 157.048 232.806C157.286 232.708 157.548 232.682 157.8 232.732C158.052 232.782 158.284 232.905 158.466 233.086C158.648 233.266 158.772 233.497 158.822 233.747C158.872 233.998 158.847 234.258 158.748 234.494C158.65 234.73 158.483 234.931 158.269 235.073C158.055 235.215 157.803 235.291 157.546 235.291C157.201 235.291 156.87 235.155 156.626 234.913C156.382 234.67 156.245 234.342 156.245 233.999Z" fill="#585858"/>
<path fill-rule="evenodd" clip-rule="evenodd" d="M130.205 233.999C130.205 233.744 130.281 233.494 130.424 233.281C130.567 233.069 130.77 232.903 131.008 232.806C131.246 232.708 131.507 232.682 131.76 232.732C132.012 232.782 132.244 232.905 132.426 233.086C132.608 233.266 132.731 233.497 132.782 233.747C132.832 233.998 132.806 234.258 132.708 234.494C132.609 234.73 132.442 234.931 132.228 235.073C132.015 235.215 131.763 235.291 131.506 235.291C131.161 235.291 130.83 235.155 130.586 234.913C130.342 234.67 130.205 234.342 130.205 233.999Z" fill="#585858"/>
<path fill-rule="evenodd" clip-rule="evenodd" d="M104.175 233.999C104.175 233.744 104.251 233.494 104.394 233.281C104.537 233.069 104.74 232.903 104.978 232.806C105.216 232.708 105.477 232.682 105.73 232.732C105.982 232.782 106.214 232.905 106.396 233.086C106.578 233.266 106.702 233.497 106.752 233.747C106.802 233.998 106.776 234.258 106.678 234.494C106.579 234.73 106.413 234.931 106.199 235.073C105.985 235.215 105.733 235.291 105.476 235.291C105.131 235.291 104.8 235.155 104.556 234.913C104.312 234.67 104.175 234.342 104.175 233.999Z" fill="#585858"/>
<path fill-rule="evenodd" clip-rule="evenodd" d="M78.1345 233.999C78.1345 233.744 78.2108 233.494 78.3537 233.281C78.4967 233.069 78.6999 232.903 78.9376 232.806C79.1753 232.708 79.4368 232.682 79.6892 232.732C79.9415 232.782 80.1734 232.905 80.3554 233.086C80.5373 233.266 80.6611 233.497 80.7113 233.747C80.7615 233.998 80.7358 234.258 80.6374 234.494C80.5389 234.73 80.3722 234.931 80.1582 235.073C79.9443 235.215 79.6927 235.291 79.4354 235.291C79.0903 235.291 78.7595 235.155 78.5155 234.913C78.2715 234.67 78.1345 234.342 78.1345 233.999Z" fill="#585858"/>
<path fill-rule="evenodd" clip-rule="evenodd" d="M52.0927 233.999C52.0927 233.744 52.169 233.494 52.312 233.281C52.4549 233.069 52.6582 232.903 52.8959 232.806C53.1336 232.708 53.3951 232.682 53.6475 232.732C53.8998 232.782 54.1317 232.905 54.3136 233.086C54.4956 233.266 54.6194 233.497 54.6696 233.747C54.7198 233.998 54.694 234.258 54.5955 234.494C54.4971 234.73 54.3304 234.931 54.1165 235.073C53.9026 235.215 53.651 235.291 53.3937 235.291C53.2228 235.291 53.0537 235.258 52.8959 235.193C52.738 235.128 52.5946 235.033 52.4738 234.913C52.353 234.793 52.2572 234.65 52.1918 234.494C52.1264 234.337 52.0927 234.169 52.0927 233.999Z" fill="#585858"/>
<path fill-rule="evenodd" clip-rule="evenodd" d="M26.0641 233.999C26.0641 233.744 26.1405 233.494 26.2834 233.281C26.4264 233.069 26.6295 232.903 26.8672 232.806C27.1049 232.708 27.3666 232.682 27.6189 232.732C27.8713 232.782 28.103 232.905 28.2849 233.086C28.4669 233.266 28.5908 233.497 28.641 233.747C28.6912 233.998 28.6654 234.258 28.567 234.494C28.4685 234.73 28.3017 234.931 28.0878 235.073C27.8739 235.215 27.6224 235.291 27.3651 235.291C27.0201 235.291 26.6891 235.155 26.4451 234.913C26.2011 234.67 26.0641 234.342 26.0641 233.999Z" fill="#585858"/>
<path fill-rule="evenodd" clip-rule="evenodd" d="M0.000396385 233.999C0.000396365 233.744 0.0766273 233.494 0.219577 233.281C0.362526 233.069 0.565748 232.903 0.803464 232.806C1.04118 232.708 1.30284 232.682 1.55519 232.732C1.80755 232.782 2.03928 232.905 2.22122 233.086C2.40316 233.266 2.52711 233.497 2.57731 233.747C2.6275 233.998 2.60171 234.258 2.50324 234.494C2.40478 234.73 2.23802 234.931 2.02408 235.073C1.81015 235.215 1.55868 235.291 1.30138 235.291C0.956346 235.291 0.625369 235.155 0.381395 234.913C0.137421 234.67 0.000396413 234.342 0.000396385 233.999Z" fill="#585858"/>
<path fill-rule="evenodd" clip-rule="evenodd" d="M260.398 208.139C260.398 207.884 260.474 207.634 260.617 207.421C260.76 207.209 260.963 207.043 261.201 206.946C261.439 206.848 261.7 206.822 261.953 206.872C262.205 206.922 262.437 207.045 262.619 207.226C262.801 207.406 262.925 207.636 262.975 207.887C263.025 208.138 262.999 208.397 262.901 208.634C262.802 208.87 262.636 209.071 262.422 209.213C262.208 209.355 261.956 209.431 261.699 209.431C261.354 209.431 261.023 209.295 260.779 209.053C260.535 208.81 260.398 208.482 260.398 208.139Z" fill="#585858"/>
<path fill-rule="evenodd" clip-rule="evenodd" d="M234.392 208.139C234.392 207.884 234.468 207.634 234.611 207.421C234.754 207.209 234.957 207.043 235.195 206.946C235.432 206.848 235.694 206.822 235.946 206.872C236.199 206.922 236.43 207.045 236.612 207.226C236.794 207.406 236.918 207.636 236.968 207.887C237.019 208.138 236.993 208.397 236.894 208.634C236.796 208.87 236.629 209.071 236.415 209.213C236.201 209.355 235.95 209.431 235.692 209.431C235.347 209.431 235.017 209.295 234.773 209.053C234.529 208.81 234.392 208.482 234.392 208.139Z" fill="#585858"/>
<path fill-rule="evenodd" clip-rule="evenodd" d="M208.317 208.139C208.317 207.884 208.393 207.634 208.536 207.421C208.679 207.209 208.882 207.043 209.12 206.946C209.358 206.848 209.619 206.822 209.872 206.872C210.124 206.922 210.356 207.045 210.538 207.226C210.72 207.406 210.844 207.636 210.894 207.887C210.944 208.138 210.918 208.397 210.82 208.634C210.721 208.87 210.554 209.071 210.34 209.213C210.127 209.355 209.875 209.431 209.618 209.431C209.273 209.431 208.942 209.295 208.698 209.053C208.454 208.81 208.317 208.482 208.317 208.139Z" fill="#585858"/>
<path fill-rule="evenodd" clip-rule="evenodd" d="M182.287 208.139C182.287 207.884 182.363 207.634 182.506 207.421C182.649 207.209 182.852 207.043 183.09 206.946C183.328 206.848 183.589 206.822 183.842 206.872C184.094 206.922 184.326 207.045 184.508 207.226C184.69 207.406 184.814 207.636 184.864 207.887C184.914 208.138 184.888 208.397 184.79 208.634C184.691 208.87 184.525 209.071 184.311 209.213C184.097 209.355 183.845 209.431 183.588 209.431C183.243 209.431 182.912 209.295 182.668 209.053C182.424 208.81 182.287 208.482 182.287 208.139Z" fill="#585858"/>
<path fill-rule="evenodd" clip-rule="evenodd" d="M156.245 208.139C156.245 207.884 156.322 207.634 156.465 207.421C156.607 207.209 156.811 207.043 157.048 206.946C157.286 206.848 157.548 206.822 157.8 206.872C158.052 206.922 158.284 207.045 158.466 207.226C158.648 207.406 158.772 207.636 158.822 207.887C158.872 208.138 158.847 208.397 158.748 208.634C158.65 208.87 158.483 209.071 158.269 209.213C158.055 209.355 157.803 209.431 157.546 209.431C157.201 209.431 156.87 209.295 156.626 209.053C156.382 208.81 156.245 208.482 156.245 208.139Z" fill="#585858"/>
<path fill-rule="evenodd" clip-rule="evenodd" d="M130.205 208.139C130.205 207.884 130.281 207.634 130.424 207.421C130.567 207.209 130.77 207.043 131.008 206.946C131.246 206.848 131.507 206.822 131.76 206.872C132.012 206.922 132.244 207.045 132.426 207.226C132.608 207.406 132.731 207.636 132.782 207.887C132.832 208.138 132.806 208.397 132.708 208.634C132.609 208.87 132.442 209.071 132.228 209.213C132.015 209.355 131.763 209.431 131.506 209.431C131.161 209.431 130.83 209.295 130.586 209.053C130.342 208.81 130.205 208.482 130.205 208.139Z" fill="#585858"/>
<path fill-rule="evenodd" clip-rule="evenodd" d="M104.175 208.139C104.175 207.881 104.253 207.629 104.399 207.416C104.544 207.202 104.751 207.037 104.992 206.941C105.233 206.845 105.497 206.823 105.751 206.878C106.005 206.932 106.236 207.061 106.416 207.247C106.595 207.433 106.715 207.669 106.758 207.923C106.802 208.177 106.768 208.438 106.661 208.673C106.554 208.908 106.378 209.106 106.157 209.241C105.936 209.376 105.679 209.442 105.42 209.431C105.075 209.431 104.744 209.295 104.5 209.053C104.256 208.81 104.119 208.482 104.119 208.139" fill="#585858"/>
<path fill-rule="evenodd" clip-rule="evenodd" d="M78.1345 208.139C78.1345 207.884 78.2108 207.634 78.3537 207.421C78.4967 207.209 78.6999 207.043 78.9376 206.946C79.1753 206.848 79.4368 206.822 79.6892 206.872C79.9415 206.922 80.1734 207.045 80.3554 207.226C80.5373 207.406 80.6611 207.636 80.7113 207.887C80.7615 208.138 80.7358 208.397 80.6374 208.634C80.5389 208.87 80.3722 209.071 80.1582 209.213C79.9443 209.355 79.6927 209.431 79.4354 209.431C79.0903 209.431 78.7595 209.295 78.5155 209.053C78.2715 208.81 78.1345 208.482 78.1345 208.139Z" fill="#585858"/>
<path fill-rule="evenodd" clip-rule="evenodd" d="M52.0927 208.139C52.0927 207.884 52.169 207.634 52.312 207.421C52.4549 207.209 52.6582 207.043 52.8959 206.946C53.1336 206.848 53.3951 206.822 53.6475 206.872C53.8998 206.922 54.1317 207.045 54.3136 207.226C54.4956 207.406 54.6194 207.637 54.6696 207.887C54.7198 208.138 54.694 208.398 54.5955 208.634C54.4971 208.87 54.3304 209.071 54.1165 209.213C53.9026 209.355 53.651 209.431 53.3937 209.431C53.2228 209.431 53.0537 209.398 52.8959 209.333C52.738 209.268 52.5946 209.173 52.4738 209.053C52.353 208.933 52.2572 208.79 52.1918 208.634C52.1264 208.477 52.0927 208.309 52.0927 208.139Z" fill="#585858"/>
<path fill-rule="evenodd" clip-rule="evenodd" d="M26.0641 208.139C26.0641 207.884 26.1405 207.634 26.2834 207.421C26.4264 207.209 26.6295 207.043 26.8672 206.946C27.1049 206.848 27.3666 206.822 27.6189 206.872C27.8713 206.922 28.103 207.045 28.2849 207.226C28.4669 207.406 28.5908 207.637 28.641 207.887C28.6912 208.138 28.6654 208.398 28.567 208.634C28.4685 208.87 28.3017 209.071 28.0878 209.213C27.8739 209.355 27.6224 209.431 27.3651 209.431C27.0201 209.431 26.6891 209.295 26.4451 209.053C26.2011 208.81 26.0641 208.482 26.0641 208.139Z" fill="#585858"/>
<path fill-rule="evenodd" clip-rule="evenodd" d="M0.000396385 208.139C0.000396365 207.884 0.0766273 207.634 0.219577 207.421C0.362526 207.209 0.565748 207.043 0.803464 206.946C1.04118 206.848 1.30284 206.822 1.55519 206.872C1.80755 206.922 2.03928 207.045 2.22122 207.226C2.40316 207.406 2.52711 207.637 2.57731 207.887C2.6275 208.138 2.60171 208.398 2.50324 208.634C2.40478 208.87 2.23802 209.071 2.02408 209.213C1.81015 209.355 1.55868 209.431 1.30138 209.431C0.956346 209.431 0.625369 209.295 0.381395 209.053C0.137421 208.81 0.000396413 208.482 0.000396385 208.139Z" fill="#585858"/>
<path fill-rule="evenodd" clip-rule="evenodd" d="M260.398 182.29C260.398 182.035 260.474 181.785 260.617 181.572C260.76 181.36 260.963 181.194 261.201 181.097C261.439 180.999 261.7 180.973 261.953 181.023C262.205 181.073 262.437 181.196 262.619 181.377C262.801 181.557 262.925 181.788 262.975 182.038C263.025 182.289 262.999 182.548 262.901 182.785C262.802 183.021 262.636 183.222 262.422 183.364C262.208 183.506 261.956 183.582 261.699 183.582C261.354 183.582 261.023 183.446 260.779 183.204C260.535 182.961 260.398 182.633 260.398 182.29Z" fill="#585858"/>
<path fill-rule="evenodd" clip-rule="evenodd" d="M234.392 182.29C234.392 182.035 234.468 181.785 234.611 181.572C234.754 181.36 234.957 181.194 235.195 181.097C235.432 180.999 235.694 180.973 235.946 181.023C236.199 181.073 236.43 181.196 236.612 181.377C236.794 181.557 236.918 181.788 236.968 182.038C237.019 182.289 236.993 182.548 236.894 182.785C236.796 183.021 236.629 183.222 236.415 183.364C236.201 183.506 235.95 183.582 235.692 183.582C235.347 183.582 235.017 183.446 234.773 183.204C234.529 182.961 234.392 182.633 234.392 182.29Z" fill="#585858"/>
<path fill-rule="evenodd" clip-rule="evenodd" d="M208.317 182.29C208.317 182.035 208.393 181.785 208.536 181.572C208.679 181.36 208.882 181.194 209.12 181.097C209.358 180.999 209.619 180.973 209.872 181.023C210.124 181.073 210.356 181.196 210.538 181.377C210.72 181.557 210.844 181.788 210.894 182.038C210.944 182.289 210.918 182.548 210.82 182.785C210.721 183.021 210.554 183.222 210.34 183.364C210.127 183.506 209.875 183.582 209.618 183.582C209.273 183.582 208.942 183.446 208.698 183.204C208.454 182.961 208.317 182.633 208.317 182.29Z" fill="#585858"/>
<path fill-rule="evenodd" clip-rule="evenodd" d="M182.287 182.29C182.287 182.035 182.363 181.785 182.506 181.572C182.649 181.36 182.852 181.194 183.09 181.097C183.328 180.999 183.589 180.973 183.842 181.023C184.094 181.073 184.326 181.196 184.508 181.377C184.69 181.557 184.814 181.788 184.864 182.038C184.914 182.289 184.888 182.548 184.79 182.785C184.691 183.021 184.525 183.222 184.311 183.364C184.097 183.506 183.845 183.582 183.588 183.582C183.243 183.582 182.912 183.446 182.668 183.204C182.424 182.961 182.287 182.633 182.287 182.29Z" fill="#585858"/>
<path fill-rule="evenodd" clip-rule="evenodd" d="M156.245 182.29C156.245 182.035 156.322 181.785 156.465 181.572C156.607 181.36 156.811 181.194 157.048 181.097C157.286 180.999 157.548 180.973 157.8 181.023C158.052 181.073 158.284 181.196 158.466 181.377C158.648 181.557 158.772 181.788 158.822 182.038C158.872 182.289 158.847 182.548 158.748 182.785C158.65 183.021 158.483 183.222 158.269 183.364C158.055 183.506 157.803 183.582 157.546 183.582C157.201 183.582 156.87 183.446 156.626 183.204C156.382 182.961 156.245 182.633 156.245 182.29Z" fill="#585858"/>
<path fill-rule="evenodd" clip-rule="evenodd" d="M130.205 182.29C130.205 182.035 130.281 181.785 130.424 181.572C130.567 181.36 130.77 181.194 131.008 181.097C131.246 180.999 131.507 180.973 131.76 181.023C132.012 181.073 132.244 181.196 132.426 181.377C132.608 181.557 132.731 181.788 132.782 182.038C132.832 182.289 132.806 182.548 132.708 182.785C132.609 183.021 132.442 183.222 132.228 183.364C132.015 183.506 131.763 183.582 131.506 183.582C131.161 183.582 130.83 183.446 130.586 183.204C130.342 182.961 130.205 182.633 130.205 182.29Z" fill="#585858"/>
<path fill-rule="evenodd" clip-rule="evenodd" d="M104.175 182.29C104.175 182.035 104.251 181.785 104.394 181.572C104.537 181.36 104.74 181.194 104.978 181.097C105.216 180.999 105.477 180.973 105.73 181.023C105.982 181.073 106.214 181.196 106.396 181.377C106.578 181.557 106.702 181.788 106.752 182.038C106.802 182.289 106.776 182.548 106.678 182.785C106.579 183.021 106.413 183.222 106.199 183.364C105.985 183.506 105.733 183.582 105.476 183.582C105.131 183.582 104.8 183.446 104.556 183.204C104.312 182.961 104.175 182.633 104.175 182.29Z" fill="#585858"/>
<path fill-rule="evenodd" clip-rule="evenodd" d="M78.1345 182.29C78.1345 182.035 78.2108 181.785 78.3537 181.572C78.4967 181.36 78.6999 181.194 78.9376 181.097C79.1753 180.999 79.4368 180.973 79.6892 181.023C79.9415 181.073 80.1734 181.196 80.3554 181.377C80.5373 181.557 80.6611 181.788 80.7113 182.038C80.7615 182.289 80.7358 182.548 80.6374 182.785C80.5389 183.021 80.3722 183.222 80.1582 183.364C79.9443 183.506 79.6927 183.582 79.4354 183.582C79.0903 183.582 78.7595 183.446 78.5155 183.204C78.2715 182.961 78.1345 182.633 78.1345 182.29Z" fill="#585858"/>
<path fill-rule="evenodd" clip-rule="evenodd" d="M52.0927 182.29C52.0927 182.035 52.169 181.785 52.312 181.572C52.4549 181.36 52.6582 181.194 52.8959 181.097C53.1336 180.999 53.3951 180.973 53.6475 181.023C53.8998 181.073 54.1317 181.196 54.3136 181.377C54.4956 181.557 54.6194 181.788 54.6696 182.038C54.7198 182.289 54.694 182.548 54.5955 182.785C54.4971 183.021 54.3304 183.222 54.1165 183.364C53.9026 183.506 53.651 183.582 53.3937 183.582C53.2228 183.582 53.0537 183.549 52.8959 183.484C52.738 183.419 52.5946 183.324 52.4738 183.204C52.353 183.084 52.2572 182.941 52.1918 182.785C52.1264 182.628 52.0927 182.46 52.0927 182.29Z" fill="#585858"/>
<path fill-rule="evenodd" clip-rule="evenodd" d="M26.0641 182.29C26.0641 182.035 26.1405 181.785 26.2834 181.572C26.4264 181.36 26.6295 181.194 26.8672 181.097C27.1049 180.999 27.3666 180.973 27.6189 181.023C27.8713 181.073 28.103 181.196 28.2849 181.377C28.4669 181.557 28.5908 181.788 28.641 182.038C28.6912 182.289 28.6654 182.548 28.567 182.785C28.4685 183.021 28.3017 183.222 28.0878 183.364C27.8739 183.506 27.6224 183.582 27.3651 183.582C27.0201 183.582 26.6891 183.446 26.4451 183.204C26.2011 182.961 26.0641 182.633 26.0641 182.29Z" fill="#585858"/>
<path fill-rule="evenodd" clip-rule="evenodd" d="M0.000396385 182.29C0.000396365 182.035 0.0766273 181.785 0.219577 181.572C0.362526 181.36 0.565748 181.194 0.803464 181.097C1.04118 180.999 1.30284 180.973 1.55519 181.023C1.80755 181.073 2.03928 181.196 2.22122 181.377C2.40316 181.557 2.52711 181.788 2.57731 182.038C2.6275 182.289 2.60171 182.548 2.50324 182.785C2.40478 183.021 2.23802 183.222 2.02408 183.364C1.81015 183.506 1.55868 183.582 1.30138 183.582C0.956346 183.582 0.625369 183.446 0.381395 183.204C0.137421 182.961 0.000396413 182.633 0.000396385 182.29Z" fill="#585858"/>
<path fill-rule="evenodd" clip-rule="evenodd" d="M260.398 156.43C260.398 156.175 260.474 155.925 260.617 155.712C260.76 155.5 260.963 155.334 261.201 155.237C261.439 155.139 261.7 155.113 261.953 155.163C262.205 155.213 262.437 155.336 262.619 155.517C262.801 155.697 262.925 155.927 262.975 156.178C263.025 156.429 262.999 156.688 262.901 156.924C262.802 157.161 262.636 157.362 262.422 157.504C262.208 157.646 261.956 157.722 261.699 157.722C261.354 157.722 261.023 157.586 260.779 157.344C260.535 157.101 260.398 156.773 260.398 156.43Z" fill="#585858"/>
<path fill-rule="evenodd" clip-rule="evenodd" d="M234.392 156.43C234.392 156.175 234.468 155.925 234.611 155.712C234.754 155.5 234.957 155.334 235.195 155.237C235.432 155.139 235.694 155.113 235.946 155.163C236.199 155.213 236.43 155.336 236.612 155.517C236.794 155.697 236.918 155.927 236.968 156.178C237.019 156.429 236.993 156.688 236.894 156.924C236.796 157.161 236.629 157.362 236.415 157.504C236.201 157.646 235.95 157.722 235.692 157.722C235.347 157.722 235.017 157.586 234.773 157.344C234.529 157.101 234.392 156.773 234.392 156.43Z" fill="#585858"/>
<path fill-rule="evenodd" clip-rule="evenodd" d="M208.317 156.43C208.317 156.175 208.393 155.925 208.536 155.712C208.679 155.5 208.882 155.334 209.12 155.237C209.358 155.139 209.619 155.113 209.872 155.163C210.124 155.213 210.356 155.336 210.538 155.517C210.72 155.697 210.844 155.927 210.894 156.178C210.944 156.429 210.918 156.688 210.82 156.924C210.721 157.161 210.554 157.362 210.34 157.504C210.127 157.646 209.875 157.722 209.618 157.722C209.273 157.722 208.942 157.586 208.698 157.344C208.454 157.101 208.317 156.773 208.317 156.43Z" fill="#585858"/>
<path fill-rule="evenodd" clip-rule="evenodd" d="M182.287 156.43C182.287 156.175 182.363 155.925 182.506 155.712C182.649 155.5 182.852 155.334 183.09 155.237C183.328 155.139 183.589 155.113 183.842 155.163C184.094 155.213 184.326 155.336 184.508 155.517C184.69 155.697 184.814 155.927 184.864 156.178C184.914 156.429 184.888 156.688 184.79 156.924C184.691 157.161 184.525 157.362 184.311 157.504C184.097 157.646 183.845 157.722 183.588 157.722C183.243 157.722 182.912 157.586 182.668 157.344C182.424 157.101 182.287 156.773 182.287 156.43Z" fill="#585858"/>
<path fill-rule="evenodd" clip-rule="evenodd" d="M156.245 156.43C156.245 156.175 156.322 155.925 156.465 155.712C156.607 155.5 156.811 155.334 157.048 155.237C157.286 155.139 157.548 155.113 157.8 155.163C158.052 155.213 158.284 155.336 158.466 155.517C158.648 155.697 158.772 155.927 158.822 156.178C158.872 156.429 158.847 156.688 158.748 156.924C158.65 157.161 158.483 157.362 158.269 157.504C158.055 157.646 157.803 157.722 157.546 157.722C157.201 157.722 156.87 157.586 156.626 157.344C156.382 157.101 156.245 156.773 156.245 156.43Z" fill="#585858"/>
<path fill-rule="evenodd" clip-rule="evenodd" d="M130.205 156.43C130.205 156.175 130.281 155.925 130.424 155.712C130.567 155.5 130.77 155.334 131.008 155.237C131.246 155.139 131.507 155.113 131.76 155.163C132.012 155.213 132.244 155.336 132.426 155.517C132.608 155.697 132.731 155.927 132.782 156.178C132.832 156.429 132.806 156.688 132.708 156.924C132.609 157.161 132.442 157.362 132.228 157.504C132.015 157.646 131.763 157.722 131.506 157.722C131.161 157.722 130.83 157.586 130.586 157.344C130.342 157.101 130.205 156.773 130.205 156.43Z" fill="#585858"/>
<path fill-rule="evenodd" clip-rule="evenodd" d="M104.175 156.43C104.175 156.175 104.251 155.925 104.394 155.712C104.537 155.5 104.74 155.334 104.978 155.237C105.216 155.139 105.477 155.113 105.73 155.163C105.982 155.213 106.214 155.336 106.396 155.517C106.578 155.697 106.702 155.927 106.752 156.178C106.802 156.429 106.776 156.688 106.678 156.924C106.579 157.161 106.413 157.362 106.199 157.504C105.985 157.646 105.733 157.722 105.476 157.722C105.131 157.722 104.8 157.586 104.556 157.344C104.312 157.101 104.175 156.773 104.175 156.43Z" fill="#585858"/>
<path fill-rule="evenodd" clip-rule="evenodd" d="M78.1345 156.43C78.1345 156.175 78.2108 155.925 78.3537 155.712C78.4967 155.5 78.6999 155.334 78.9376 155.237C79.1753 155.139 79.4368 155.113 79.6892 155.163C79.9415 155.213 80.1734 155.336 80.3554 155.517C80.5373 155.697 80.6611 155.927 80.7113 156.178C80.7615 156.429 80.7358 156.688 80.6374 156.924C80.5389 157.161 80.3722 157.362 80.1582 157.504C79.9443 157.646 79.6927 157.722 79.4354 157.722C79.0903 157.722 78.7595 157.586 78.5155 157.344C78.2715 157.101 78.1345 156.773 78.1345 156.43Z" fill="#585858"/>
<path fill-rule="evenodd" clip-rule="evenodd" d="M52.0927 156.43C52.0927 156.175 52.169 155.925 52.312 155.712C52.4549 155.5 52.6582 155.334 52.8959 155.237C53.1336 155.139 53.3951 155.113 53.6475 155.163C53.8998 155.213 54.1317 155.336 54.3136 155.517C54.4956 155.697 54.6194 155.927 54.6696 156.178C54.7198 156.429 54.694 156.688 54.5955 156.924C54.4971 157.161 54.3304 157.362 54.1165 157.504C53.9026 157.646 53.651 157.722 53.3937 157.722C53.2228 157.722 53.0537 157.689 52.8959 157.624C52.738 157.559 52.5946 157.464 52.4738 157.344C52.353 157.224 52.2572 157.081 52.1918 156.924C52.1264 156.768 52.0927 156.6 52.0927 156.43Z" fill="#585858"/>
<path fill-rule="evenodd" clip-rule="evenodd" d="M26.0641 156.43C26.0641 156.175 26.1405 155.925 26.2834 155.712C26.4264 155.5 26.6295 155.334 26.8672 155.237C27.1049 155.139 27.3666 155.113 27.6189 155.163C27.8713 155.213 28.103 155.336 28.2849 155.517C28.4669 155.697 28.5908 155.927 28.641 156.178C28.6912 156.429 28.6654 156.688 28.567 156.924C28.4685 157.161 28.3017 157.362 28.0878 157.504C27.8739 157.646 27.6224 157.722 27.3651 157.722C27.0201 157.722 26.6891 157.586 26.4451 157.344C26.2011 157.101 26.0641 156.773 26.0641 156.43Z" fill="#585858"/>
<path fill-rule="evenodd" clip-rule="evenodd" d="M0.000396385 156.43C0.000396365 156.175 0.0766273 155.925 0.219577 155.712C0.362526 155.5 0.565748 155.334 0.803464 155.237C1.04118 155.139 1.30284 155.113 1.55519 155.163C1.80755 155.213 2.03928 155.336 2.22122 155.517C2.40316 155.697 2.52711 155.927 2.57731 156.178C2.6275 156.429 2.60171 156.688 2.50324 156.924C2.40478 157.161 2.23802 157.362 2.02408 157.504C1.81015 157.646 1.55868 157.722 1.30138 157.722C0.956346 157.722 0.625369 157.586 0.381395 157.344C0.137421 157.101 0.000396413 156.773 0.000396385 156.43Z" fill="#585858"/>
<path fill-rule="evenodd" clip-rule="evenodd" d="M260.398 130.57C260.398 130.314 260.474 130.065 260.617 129.852C260.76 129.64 260.963 129.474 261.201 129.376C261.439 129.279 261.7 129.253 261.953 129.303C262.205 129.353 262.437 129.476 262.619 129.656C262.801 129.837 262.925 130.067 262.975 130.318C263.025 130.568 262.999 130.828 262.901 131.064C262.802 131.3 262.636 131.502 262.422 131.644C262.208 131.786 261.956 131.862 261.699 131.862C261.354 131.862 261.023 131.726 260.779 131.483C260.535 131.241 260.398 130.913 260.398 130.57Z" fill="#585858"/>
<path fill-rule="evenodd" clip-rule="evenodd" d="M234.392 130.57C234.392 130.314 234.468 130.065 234.611 129.852C234.754 129.64 234.957 129.474 235.195 129.376C235.432 129.279 235.694 129.253 235.946 129.303C236.199 129.353 236.43 129.476 236.612 129.656C236.794 129.837 236.918 130.067 236.968 130.318C237.019 130.568 236.993 130.828 236.894 131.064C236.796 131.3 236.629 131.502 236.415 131.644C236.201 131.786 235.95 131.862 235.692 131.862C235.347 131.862 235.017 131.726 234.773 131.483C234.529 131.241 234.392 130.913 234.392 130.57Z" fill="#585858"/>
<path fill-rule="evenodd" clip-rule="evenodd" d="M208.317 130.57C208.317 130.314 208.393 130.065 208.536 129.852C208.679 129.64 208.882 129.474 209.12 129.376C209.358 129.279 209.619 129.253 209.872 129.303C210.124 129.353 210.356 129.476 210.538 129.656C210.72 129.837 210.844 130.067 210.894 130.318C210.944 130.568 210.918 130.828 210.82 131.064C210.721 131.3 210.554 131.502 210.34 131.644C210.127 131.786 209.875 131.862 209.618 131.862C209.273 131.862 208.942 131.726 208.698 131.483C208.454 131.241 208.317 130.913 208.317 130.57Z" fill="#585858"/>
<path fill-rule="evenodd" clip-rule="evenodd" d="M182.287 130.57C182.276 130.312 182.343 130.057 182.479 129.838C182.615 129.618 182.814 129.444 183.05 129.338C183.287 129.231 183.55 129.197 183.806 129.241C184.062 129.284 184.299 129.403 184.486 129.581C184.674 129.759 184.804 129.989 184.859 130.241C184.913 130.493 184.891 130.756 184.795 130.995C184.698 131.234 184.531 131.439 184.316 131.584C184.101 131.729 183.848 131.806 183.588 131.806C183.243 131.806 182.912 131.67 182.668 131.428C182.424 131.186 182.287 130.857 182.287 130.514" fill="#585858"/>
<path fill-rule="evenodd" clip-rule="evenodd" d="M156.245 130.57C156.245 130.314 156.322 130.065 156.465 129.852C156.607 129.64 156.811 129.474 157.048 129.376C157.286 129.279 157.548 129.253 157.8 129.303C158.052 129.353 158.284 129.476 158.466 129.656C158.648 129.837 158.772 130.067 158.822 130.318C158.872 130.568 158.847 130.828 158.748 131.064C158.65 131.3 158.483 131.502 158.269 131.644C158.055 131.786 157.803 131.862 157.546 131.862C157.201 131.862 156.87 131.726 156.626 131.483C156.382 131.241 156.245 130.913 156.245 130.57Z" fill="#585858"/>
<path fill-rule="evenodd" clip-rule="evenodd" d="M130.205 130.57C130.205 130.314 130.281 130.065 130.424 129.852C130.567 129.64 130.77 129.474 131.008 129.376C131.246 129.279 131.507 129.253 131.76 129.303C132.012 129.353 132.244 129.476 132.426 129.656C132.608 129.837 132.731 130.067 132.782 130.318C132.832 130.568 132.806 130.828 132.708 131.064C132.609 131.3 132.442 131.502 132.228 131.644C132.015 131.786 131.763 131.862 131.506 131.862C131.161 131.862 130.83 131.726 130.586 131.483C130.342 131.241 130.205 130.913 130.205 130.57Z" fill="#585858"/>
<path fill-rule="evenodd" clip-rule="evenodd" d="M104.175 130.57C104.164 130.31 104.232 130.053 104.371 129.832C104.51 129.611 104.712 129.437 104.952 129.333C105.192 129.228 105.458 129.198 105.715 129.246C105.973 129.294 106.21 129.418 106.395 129.602C106.58 129.786 106.705 130.021 106.753 130.277C106.802 130.533 106.771 130.797 106.666 131.035C106.561 131.273 106.385 131.474 106.163 131.612C105.941 131.75 105.682 131.817 105.42 131.806C105.075 131.806 104.744 131.67 104.5 131.428C104.256 131.186 104.119 130.857 104.119 130.514" fill="#585858"/>
<path fill-rule="evenodd" clip-rule="evenodd" d="M78.1345 130.57C78.1345 130.314 78.2108 130.065 78.3537 129.852C78.4967 129.64 78.6999 129.474 78.9376 129.376C79.1753 129.279 79.4368 129.253 79.6892 129.303C79.9415 129.353 80.1734 129.476 80.3554 129.656C80.5373 129.837 80.6611 130.067 80.7113 130.318C80.7615 130.568 80.7358 130.828 80.6374 131.064C80.5389 131.3 80.3722 131.502 80.1582 131.644C79.9443 131.786 79.6927 131.862 79.4354 131.862C79.0903 131.862 78.7595 131.726 78.5155 131.483C78.2715 131.241 78.1345 130.913 78.1345 130.57Z" fill="#585858"/>
<path fill-rule="evenodd" clip-rule="evenodd" d="M52.0927 130.57C52.0927 130.314 52.169 130.065 52.312 129.852C52.4549 129.64 52.6582 129.474 52.8959 129.376C53.1336 129.279 53.3951 129.253 53.6475 129.303C53.8998 129.353 54.1317 129.476 54.3136 129.656C54.4956 129.837 54.6194 130.067 54.6696 130.318C54.7198 130.568 54.694 130.828 54.5955 131.064C54.4971 131.3 54.3304 131.502 54.1165 131.644C53.9026 131.786 53.651 131.862 53.3937 131.862C53.2228 131.862 53.0537 131.828 52.8959 131.763C52.738 131.699 52.5946 131.603 52.4738 131.483C52.353 131.363 52.2572 131.221 52.1918 131.064C52.1264 130.908 52.0927 130.74 52.0927 130.57Z" fill="#585858"/>
<path fill-rule="evenodd" clip-rule="evenodd" d="M26.0641 130.57C26.0641 130.314 26.1405 130.065 26.2834 129.852C26.4264 129.64 26.6295 129.474 26.8672 129.376C27.1049 129.279 27.3666 129.253 27.6189 129.303C27.8713 129.353 28.103 129.476 28.2849 129.656C28.4669 129.837 28.5908 130.067 28.641 130.318C28.6912 130.568 28.6654 130.828 28.567 131.064C28.4685 131.3 28.3017 131.502 28.0878 131.644C27.8739 131.786 27.6224 131.862 27.3651 131.862C27.0201 131.862 26.6891 131.726 26.4451 131.483C26.2011 131.241 26.0641 130.913 26.0641 130.57Z" fill="#585858"/>
<path fill-rule="evenodd" clip-rule="evenodd" d="M0.000396385 130.57C0.000396365 130.314 0.0766273 130.065 0.219577 129.852C0.362526 129.64 0.565748 129.474 0.803464 129.376C1.04118 129.279 1.30284 129.253 1.55519 129.303C1.80755 129.353 2.03928 129.476 2.22122 129.656C2.40316 129.837 2.52711 130.067 2.57731 130.318C2.6275 130.568 2.60171 130.828 2.50324 131.064C2.40478 131.3 2.23802 131.502 2.02408 131.644C1.81015 131.786 1.55868 131.862 1.30138 131.862C0.956346 131.862 0.625369 131.726 0.381395 131.483C0.137421 131.241 0.000396413 130.913 0.000396385 130.57Z" fill="#585858"/>
<path fill-rule="evenodd" clip-rule="evenodd" d="M260.398 104.721C260.398 104.466 260.474 104.216 260.617 104.003C260.76 103.791 260.963 103.625 261.201 103.528C261.439 103.43 261.7 103.404 261.953 103.454C262.205 103.504 262.437 103.627 262.619 103.808C262.801 103.988 262.925 104.218 262.975 104.469C263.025 104.72 262.999 104.979 262.901 105.215C262.802 105.452 262.636 105.653 262.422 105.795C262.208 105.937 261.956 106.013 261.699 106.013C261.354 106.013 261.023 105.877 260.779 105.635C260.535 105.392 260.398 105.064 260.398 104.721Z" fill="#585858"/>
<path fill-rule="evenodd" clip-rule="evenodd" d="M234.392 104.721C234.392 104.466 234.468 104.216 234.611 104.003C234.754 103.791 234.957 103.625 235.195 103.528C235.432 103.43 235.694 103.404 235.946 103.454C236.199 103.504 236.43 103.627 236.612 103.808C236.794 103.988 236.918 104.218 236.968 104.469C237.019 104.72 236.993 104.979 236.894 105.215C236.796 105.452 236.629 105.653 236.415 105.795C236.201 105.937 235.95 106.013 235.692 106.013C235.347 106.013 235.017 105.877 234.773 105.635C234.529 105.392 234.392 105.064 234.392 104.721Z" fill="#585858"/>
<path fill-rule="evenodd" clip-rule="evenodd" d="M208.317 104.721C208.317 104.466 208.393 104.216 208.536 104.003C208.679 103.791 208.882 103.625 209.12 103.528C209.358 103.43 209.619 103.404 209.872 103.454C210.124 103.504 210.356 103.627 210.538 103.808C210.72 103.988 210.844 104.218 210.894 104.469C210.944 104.72 210.918 104.979 210.82 105.215C210.721 105.452 210.554 105.653 210.34 105.795C210.127 105.937 209.875 106.013 209.618 106.013C209.273 106.013 208.942 105.877 208.698 105.635C208.454 105.392 208.317 105.064 208.317 104.721Z" fill="#585858"/>
<path fill-rule="evenodd" clip-rule="evenodd" d="M182.287 104.721C182.287 104.466 182.363 104.216 182.506 104.003C182.649 103.791 182.852 103.625 183.09 103.528C183.328 103.43 183.589 103.404 183.842 103.454C184.094 103.504 184.326 103.627 184.508 103.808C184.69 103.988 184.814 104.218 184.864 104.469C184.914 104.72 184.888 104.979 184.79 105.215C184.691 105.452 184.525 105.653 184.311 105.795C184.097 105.937 183.845 106.013 183.588 106.013C183.243 106.013 182.912 105.877 182.668 105.635C182.424 105.392 182.287 105.064 182.287 104.721Z" fill="#585858"/>
<path fill-rule="evenodd" clip-rule="evenodd" d="M156.245 104.721C156.245 104.466 156.322 104.216 156.465 104.003C156.607 103.791 156.811 103.625 157.048 103.528C157.286 103.43 157.548 103.404 157.8 103.454C158.052 103.504 158.284 103.627 158.466 103.808C158.648 103.988 158.772 104.218 158.822 104.469C158.872 104.72 158.847 104.979 158.748 105.215C158.65 105.452 158.483 105.653 158.269 105.795C158.055 105.937 157.803 106.013 157.546 106.013C157.201 106.013 156.87 105.877 156.626 105.635C156.382 105.392 156.245 105.064 156.245 104.721Z" fill="#585858"/>
<path fill-rule="evenodd" clip-rule="evenodd" d="M130.205 104.721C130.205 104.466 130.281 104.216 130.424 104.003C130.567 103.791 130.77 103.625 131.008 103.528C131.246 103.43 131.507 103.404 131.76 103.454C132.012 103.504 132.244 103.627 132.426 103.808C132.608 103.988 132.731 104.218 132.782 104.469C132.832 104.72 132.806 104.979 132.708 105.215C132.609 105.452 132.442 105.653 132.228 105.795C132.015 105.937 131.763 106.013 131.506 106.013C131.161 106.013 130.83 105.877 130.586 105.635C130.342 105.392 130.205 105.064 130.205 104.721Z" fill="#585858"/>
<path fill-rule="evenodd" clip-rule="evenodd" d="M104.175 104.721C104.175 104.466 104.251 104.216 104.394 104.003C104.537 103.791 104.74 103.625 104.978 103.528C105.216 103.43 105.477 103.404 105.73 103.454C105.982 103.504 106.214 103.627 106.396 103.808C106.578 103.988 106.702 104.218 106.752 104.469C106.802 104.72 106.776 104.979 106.678 105.215C106.579 105.452 106.413 105.653 106.199 105.795C105.985 105.937 105.733 106.013 105.476 106.013C105.131 106.013 104.8 105.877 104.556 105.635C104.312 105.392 104.175 105.064 104.175 104.721Z" fill="#585858"/>
<path fill-rule="evenodd" clip-rule="evenodd" d="M78.1345 104.721C78.1345 104.466 78.2108 104.216 78.3537 104.003C78.4967 103.791 78.6999 103.625 78.9376 103.528C79.1753 103.43 79.4368 103.404 79.6892 103.454C79.9415 103.504 80.1734 103.627 80.3554 103.808C80.5373 103.988 80.6611 104.218 80.7113 104.469C80.7615 104.72 80.7358 104.979 80.6374 105.215C80.5389 105.452 80.3722 105.653 80.1582 105.795C79.9443 105.937 79.6927 106.013 79.4354 106.013C79.0903 106.013 78.7595 105.877 78.5155 105.635C78.2715 105.392 78.1345 105.064 78.1345 104.721Z" fill="#585858"/>
<path fill-rule="evenodd" clip-rule="evenodd" d="M52.0927 104.721C52.0927 104.466 52.169 104.216 52.312 104.003C52.4549 103.791 52.6582 103.625 52.8959 103.528C53.1336 103.43 53.3951 103.404 53.6475 103.454C53.8998 103.504 54.1317 103.627 54.3136 103.808C54.4956 103.988 54.6194 104.218 54.6696 104.469C54.7198 104.72 54.694 104.979 54.5955 105.215C54.4971 105.452 54.3304 105.653 54.1165 105.795C53.9026 105.937 53.651 106.013 53.3937 106.013C53.2228 106.013 53.0537 105.98 52.8959 105.915C52.738 105.85 52.5946 105.755 52.4738 105.635C52.353 105.515 52.2572 105.372 52.1918 105.215C52.1264 105.059 52.0927 104.891 52.0927 104.721Z" fill="#585858"/>
<path fill-rule="evenodd" clip-rule="evenodd" d="M26.0641 104.721C26.0641 104.466 26.1405 104.216 26.2834 104.003C26.4264 103.791 26.6295 103.625 26.8672 103.528C27.1049 103.43 27.3666 103.404 27.6189 103.454C27.8713 103.504 28.103 103.627 28.2849 103.808C28.4669 103.988 28.5908 104.218 28.641 104.469C28.6912 104.72 28.6654 104.979 28.567 105.215C28.4685 105.452 28.3017 105.653 28.0878 105.795C27.8739 105.937 27.6224 106.013 27.3651 106.013C27.0201 106.013 26.6891 105.877 26.4451 105.635C26.2011 105.392 26.0641 105.064 26.0641 104.721Z" fill="#585858"/>
<path fill-rule="evenodd" clip-rule="evenodd" d="M0.000396385 104.721C0.000396365 104.466 0.0766273 104.216 0.219577 104.003C0.362526 103.791 0.565748 103.625 0.803464 103.528C1.04118 103.43 1.30284 103.404 1.55519 103.454C1.80755 103.504 2.03928 103.627 2.22122 103.808C2.40316 103.988 2.52711 104.218 2.57731 104.469C2.6275 104.72 2.60171 104.979 2.50324 105.215C2.40478 105.452 2.23802 105.653 2.02408 105.795C1.81015 105.937 1.55868 106.013 1.30138 106.013C0.956346 106.013 0.625369 105.877 0.381395 105.635C0.137421 105.392 0.000396413 105.064 0.000396385 104.721Z" fill="#585858"/>
<path fill-rule="evenodd" clip-rule="evenodd" d="M260.398 78.861C260.398 78.6055 260.474 78.3557 260.617 78.1433C260.76 77.9308 260.963 77.7652 261.201 77.6675C261.439 77.5697 261.7 77.5441 261.953 77.5939C262.205 77.6438 262.437 77.7668 262.619 77.9475C262.801 78.1282 262.925 78.3584 262.975 78.609C263.025 78.8596 262.999 79.1193 262.901 79.3554C262.802 79.5915 262.636 79.7932 262.422 79.9352C262.208 80.0771 261.956 80.1529 261.699 80.1529C261.354 80.1529 261.023 80.0168 260.779 79.7745C260.535 79.5322 260.398 79.2036 260.398 78.861Z" fill="#585858"/>
<path fill-rule="evenodd" clip-rule="evenodd" d="M234.392 78.861C234.392 78.6055 234.468 78.3557 234.611 78.1433C234.754 77.9308 234.957 77.7652 235.195 77.6675C235.432 77.5697 235.694 77.5441 235.946 77.5939C236.199 77.6438 236.43 77.7668 236.612 77.9475C236.794 78.1282 236.918 78.3584 236.968 78.609C237.019 78.8596 236.993 79.1193 236.894 79.3554C236.796 79.5915 236.629 79.7932 236.415 79.9352C236.201 80.0771 235.95 80.1529 235.692 80.1529C235.347 80.1529 235.017 80.0168 234.773 79.7745C234.529 79.5322 234.392 79.2036 234.392 78.861Z" fill="#585858"/>
<path fill-rule="evenodd" clip-rule="evenodd" d="M208.317 78.861C208.317 78.6055 208.393 78.3557 208.536 78.1433C208.679 77.9308 208.882 77.7652 209.12 77.6675C209.358 77.5697 209.619 77.5441 209.872 77.5939C210.124 77.6438 210.356 77.7668 210.538 77.9475C210.72 78.1282 210.844 78.3584 210.894 78.609C210.944 78.8596 210.918 79.1193 210.82 79.3554C210.721 79.5915 210.554 79.7932 210.34 79.9352C210.127 80.0771 209.875 80.1529 209.618 80.1529C209.273 80.1529 208.942 80.0168 208.698 79.7745C208.454 79.5322 208.317 79.2036 208.317 78.861Z" fill="#585858"/>
<path fill-rule="evenodd" clip-rule="evenodd" d="M182.287 78.861C182.287 78.6055 182.363 78.3557 182.506 78.1433C182.649 77.9308 182.852 77.7652 183.09 77.6675C183.328 77.5697 183.589 77.5441 183.842 77.5939C184.094 77.6438 184.326 77.7668 184.508 77.9475C184.69 78.1282 184.814 78.3584 184.864 78.609C184.914 78.8596 184.888 79.1193 184.79 79.3554C184.691 79.5915 184.525 79.7932 184.311 79.9352C184.097 80.0771 183.845 80.1529 183.588 80.1529C183.243 80.1529 182.912 80.0168 182.668 79.7745C182.424 79.5322 182.287 79.2036 182.287 78.861Z" fill="#585858"/>
<path fill-rule="evenodd" clip-rule="evenodd" d="M156.245 78.861C156.245 78.6055 156.322 78.3557 156.465 78.1433C156.607 77.9308 156.811 77.7652 157.048 77.6675C157.286 77.5697 157.548 77.5441 157.8 77.5939C158.052 77.6438 158.284 77.7668 158.466 77.9475C158.648 78.1282 158.772 78.3584 158.822 78.609C158.872 78.8596 158.847 79.1193 158.748 79.3554C158.65 79.5915 158.483 79.7932 158.269 79.9352C158.055 80.0771 157.803 80.1529 157.546 80.1529C157.201 80.1529 156.87 80.0168 156.626 79.7745C156.382 79.5322 156.245 79.2036 156.245 78.861Z" fill="#585858"/>
<path fill-rule="evenodd" clip-rule="evenodd" d="M130.205 78.861C130.205 78.6055 130.281 78.3557 130.424 78.1433C130.567 77.9308 130.77 77.7652 131.008 77.6675C131.246 77.5697 131.507 77.5441 131.76 77.5939C132.012 77.6438 132.244 77.7668 132.426 77.9475C132.608 78.1282 132.731 78.3584 132.782 78.609C132.832 78.8596 132.806 79.1193 132.708 79.3554C132.609 79.5915 132.442 79.7932 132.228 79.9352C132.015 80.0771 131.763 80.1529 131.506 80.1529C131.161 80.1529 130.83 80.0168 130.586 79.7745C130.342 79.5322 130.205 79.2036 130.205 78.861Z" fill="#585858"/>
<path fill-rule="evenodd" clip-rule="evenodd" d="M104.175 78.861C104.175 78.6055 104.251 78.3557 104.394 78.1433C104.537 77.9308 104.74 77.7652 104.978 77.6675C105.216 77.5697 105.477 77.5441 105.73 77.5939C105.982 77.6438 106.214 77.7668 106.396 77.9475C106.578 78.1282 106.702 78.3584 106.752 78.609C106.802 78.8596 106.776 79.1193 106.678 79.3554C106.579 79.5915 106.413 79.7932 106.199 79.9352C105.985 80.0771 105.733 80.1529 105.476 80.1529C105.131 80.1529 104.8 80.0168 104.556 79.7745C104.312 79.5322 104.175 79.2036 104.175 78.861Z" fill="#585858"/>
<path fill-rule="evenodd" clip-rule="evenodd" d="M78.1345 78.861C78.1345 78.6055 78.2108 78.3557 78.3537 78.1433C78.4967 77.9308 78.6999 77.7652 78.9376 77.6675C79.1753 77.5697 79.4368 77.5441 79.6892 77.5939C79.9415 77.6438 80.1734 77.7668 80.3554 77.9475C80.5373 78.1282 80.6611 78.3584 80.7113 78.609C80.7615 78.8596 80.7358 79.1193 80.6374 79.3554C80.5389 79.5915 80.3722 79.7932 80.1582 79.9352C79.9443 80.0771 79.6927 80.1529 79.4354 80.1529C79.0903 80.1529 78.7595 80.0168 78.5155 79.7745C78.2715 79.5322 78.1345 79.2036 78.1345 78.861Z" fill="#585858"/>
<path fill-rule="evenodd" clip-rule="evenodd" d="M52.0927 78.861C52.0927 78.6055 52.169 78.3557 52.312 78.1433C52.4549 77.9308 52.6582 77.7652 52.8959 77.6675C53.1336 77.5697 53.3951 77.5441 53.6475 77.5939C53.8998 77.6438 54.1317 77.7668 54.3136 77.9475C54.4956 78.1282 54.6194 78.3584 54.6696 78.609C54.7198 78.8596 54.694 79.1193 54.5955 79.3554C54.4971 79.5915 54.3304 79.7932 54.1165 79.9352C53.9026 80.0771 53.651 80.1529 53.3937 80.1529C53.2228 80.1529 53.0537 80.1195 52.8959 80.0546C52.738 79.9896 52.5946 79.8945 52.4738 79.7745C52.353 79.6545 52.2572 79.5121 52.1918 79.3554C52.1264 79.1987 52.0927 79.0307 52.0927 78.861Z" fill="#585858"/>
<path fill-rule="evenodd" clip-rule="evenodd" d="M26.0641 78.861C26.0641 78.6055 26.1405 78.3557 26.2834 78.1433C26.4264 77.9308 26.6295 77.7652 26.8672 77.6675C27.1049 77.5697 27.3666 77.5441 27.6189 77.5939C27.8713 77.6438 28.103 77.7668 28.2849 77.9475C28.4669 78.1282 28.5908 78.3584 28.641 78.609C28.6912 78.8596 28.6654 79.1193 28.567 79.3554C28.4685 79.5915 28.3017 79.7932 28.0878 79.9352C27.8739 80.0771 27.6224 80.1529 27.3651 80.1529C27.0201 80.1529 26.6891 80.0168 26.4451 79.7745C26.2011 79.5322 26.0641 79.2036 26.0641 78.861Z" fill="#585858"/>
<path fill-rule="evenodd" clip-rule="evenodd" d="M0.000396385 78.861C0.000396365 78.6055 0.0766273 78.3557 0.219577 78.1433C0.362526 77.9308 0.565748 77.7652 0.803464 77.6675C1.04118 77.5697 1.30284 77.5441 1.55519 77.5939C1.80755 77.6438 2.03928 77.7668 2.22122 77.9475C2.40316 78.1282 2.52711 78.3584 2.57731 78.609C2.6275 78.8596 2.60171 79.1193 2.50324 79.3554C2.40478 79.5915 2.23802 79.7932 2.02408 79.9352C1.81015 80.0771 1.55868 80.1529 1.30138 80.1529C0.956346 80.1529 0.625369 80.0168 0.381395 79.7745C0.137421 79.5322 0.000396413 79.2036 0.000396385 78.861Z" fill="#585858"/>
<path fill-rule="evenodd" clip-rule="evenodd" d="M260.398 53.001C260.398 52.7455 260.474 52.4957 260.617 52.2832C260.76 52.0708 260.963 51.9052 261.201 51.8074C261.439 51.7097 261.7 51.6841 261.953 51.7339C262.205 51.7838 262.437 51.9068 262.619 52.0875C262.801 52.2681 262.925 52.4983 262.975 52.7489C263.025 52.9995 262.999 53.2593 262.901 53.4954C262.802 53.7314 262.636 53.9332 262.422 54.0751C262.208 54.2171 261.956 54.2928 261.699 54.2928C261.354 54.2928 261.023 54.1567 260.779 53.9145C260.535 53.6722 260.398 53.3436 260.398 53.001Z" fill="#585858"/>
<path fill-rule="evenodd" clip-rule="evenodd" d="M234.392 53.001C234.392 52.7455 234.468 52.4957 234.611 52.2832C234.754 52.0708 234.957 51.9052 235.195 51.8074C235.432 51.7097 235.694 51.6841 235.946 51.7339C236.199 51.7838 236.43 51.9068 236.612 52.0875C236.794 52.2681 236.918 52.4983 236.968 52.7489C237.019 52.9995 236.993 53.2593 236.894 53.4954C236.796 53.7314 236.629 53.9332 236.415 54.0751C236.201 54.2171 235.95 54.2928 235.692 54.2928C235.347 54.2928 235.017 54.1567 234.773 53.9145C234.529 53.6722 234.392 53.3436 234.392 53.001Z" fill="#585858"/>
<path fill-rule="evenodd" clip-rule="evenodd" d="M208.317 53.001C208.317 52.7455 208.393 52.4957 208.536 52.2832C208.679 52.0708 208.882 51.9052 209.12 51.8074C209.358 51.7097 209.619 51.6841 209.872 51.7339C210.124 51.7838 210.356 51.9068 210.538 52.0875C210.72 52.2681 210.844 52.4983 210.894 52.7489C210.944 52.9995 210.918 53.2593 210.82 53.4954C210.721 53.7314 210.554 53.9332 210.34 54.0751C210.127 54.2171 209.875 54.2928 209.618 54.2928C209.273 54.2928 208.942 54.1567 208.698 53.9145C208.454 53.6722 208.317 53.3436 208.317 53.001Z" fill="#585858"/>
<path fill-rule="evenodd" clip-rule="evenodd" d="M182.287 53.001C182.287 52.7455 182.363 52.4957 182.506 52.2832C182.649 52.0708 182.852 51.9052 183.09 51.8074C183.328 51.7097 183.589 51.6841 183.842 51.7339C184.094 51.7838 184.326 51.9068 184.508 52.0875C184.69 52.2681 184.814 52.4983 184.864 52.7489C184.914 52.9995 184.888 53.2593 184.79 53.4954C184.691 53.7314 184.525 53.9332 184.311 54.0751C184.097 54.2171 183.845 54.2928 183.588 54.2928C183.243 54.2928 182.912 54.1567 182.668 53.9145C182.424 53.6722 182.287 53.3436 182.287 53.001Z" fill="#585858"/>
<path fill-rule="evenodd" clip-rule="evenodd" d="M156.245 53.001C156.245 52.7455 156.322 52.4957 156.465 52.2832C156.607 52.0708 156.811 51.9052 157.048 51.8074C157.286 51.7097 157.548 51.6841 157.8 51.7339C158.052 51.7838 158.284 51.9068 158.466 52.0875C158.648 52.2681 158.772 52.4983 158.822 52.7489C158.872 52.9995 158.847 53.2593 158.748 53.4954C158.65 53.7314 158.483 53.9332 158.269 54.0751C158.055 54.2171 157.803 54.2928 157.546 54.2928C157.201 54.2928 156.87 54.1567 156.626 53.9145C156.382 53.6722 156.245 53.3436 156.245 53.001Z" fill="#585858"/>
<path fill-rule="evenodd" clip-rule="evenodd" d="M130.205 53.001C130.205 52.7455 130.281 52.4957 130.424 52.2832C130.567 52.0708 130.77 51.9052 131.008 51.8074C131.246 51.7097 131.507 51.6841 131.76 51.7339C132.012 51.7838 132.244 51.9068 132.426 52.0875C132.608 52.2681 132.731 52.4983 132.782 52.7489C132.832 52.9995 132.806 53.2593 132.708 53.4954C132.609 53.7314 132.442 53.9332 132.228 54.0751C132.015 54.2171 131.763 54.2928 131.506 54.2928C131.161 54.2928 130.83 54.1567 130.586 53.9145C130.342 53.6722 130.205 53.3436 130.205 53.001Z" fill="#585858"/>
<path fill-rule="evenodd" clip-rule="evenodd" d="M104.175 53.001C104.175 52.7455 104.251 52.4957 104.394 52.2832C104.537 52.0708 104.74 51.9052 104.978 51.8074C105.216 51.7097 105.477 51.6841 105.73 51.7339C105.982 51.7838 106.214 51.9068 106.396 52.0875C106.578 52.2681 106.702 52.4983 106.752 52.7489C106.802 52.9995 106.776 53.2593 106.678 53.4954C106.579 53.7314 106.413 53.9332 106.199 54.0751C105.985 54.2171 105.733 54.2928 105.476 54.2928C105.131 54.2928 104.8 54.1567 104.556 53.9145C104.312 53.6722 104.175 53.3436 104.175 53.001Z" fill="#585858"/>
<path fill-rule="evenodd" clip-rule="evenodd" d="M78.1345 53.001C78.1345 52.7455 78.2108 52.4957 78.3537 52.2832C78.4967 52.0708 78.6999 51.9052 78.9376 51.8074C79.1753 51.7097 79.4368 51.6841 79.6892 51.7339C79.9415 51.7838 80.1734 51.9068 80.3554 52.0875C80.5373 52.2681 80.6611 52.4983 80.7113 52.7489C80.7615 52.9995 80.7358 53.2593 80.6374 53.4954C80.5389 53.7314 80.3722 53.9332 80.1582 54.0751C79.9443 54.2171 79.6927 54.2928 79.4354 54.2928C79.0903 54.2928 78.7595 54.1567 78.5155 53.9145C78.2715 53.6722 78.1345 53.3436 78.1345 53.001Z" fill="#585858"/>
<path fill-rule="evenodd" clip-rule="evenodd" d="M52.0927 53.001C52.0927 52.7455 52.169 52.4957 52.312 52.2832C52.4549 52.0708 52.6582 51.9052 52.8959 51.8074C53.1336 51.7097 53.3951 51.6841 53.6475 51.7339C53.8998 51.7838 54.1317 51.9068 54.3136 52.0875C54.4956 52.2681 54.6194 52.4983 54.6696 52.7489C54.7198 52.9995 54.694 53.2593 54.5955 53.4954C54.4971 53.7314 54.3304 53.9332 54.1165 54.0751C53.9026 54.2171 53.651 54.2928 53.3937 54.2928C53.2228 54.2928 53.0537 54.2594 52.8959 54.1945C52.738 54.1296 52.5946 54.0344 52.4738 53.9145C52.353 53.7945 52.2572 53.6521 52.1918 53.4954C52.1264 53.3386 52.0927 53.1706 52.0927 53.001Z" fill="#585858"/>
<path fill-rule="evenodd" clip-rule="evenodd" d="M26.0641 53.001C26.0641 52.7455 26.1405 52.4957 26.2834 52.2832C26.4264 52.0708 26.6295 51.9052 26.8672 51.8074C27.1049 51.7097 27.3666 51.6841 27.6189 51.7339C27.8713 51.7838 28.103 51.9068 28.2849 52.0875C28.4669 52.2681 28.5908 52.4983 28.641 52.7489C28.6912 52.9995 28.6654 53.2593 28.567 53.4954C28.4685 53.7314 28.3017 53.9332 28.0878 54.0751C27.8739 54.2171 27.6224 54.2928 27.3651 54.2928C27.0201 54.2928 26.6891 54.1567 26.4451 53.9145C26.2011 53.6722 26.0641 53.3436 26.0641 53.001Z" fill="#585858"/>
<path fill-rule="evenodd" clip-rule="evenodd" d="M0.000396385 53.001C0.000396365 52.7455 0.0766273 52.4957 0.219577 52.2832C0.362526 52.0708 0.565748 51.9052 0.803464 51.8074C1.04118 51.7097 1.30284 51.6841 1.55519 51.7339C1.80755 51.7838 2.03928 51.9068 2.22122 52.0875C2.40316 52.2681 2.52711 52.4983 2.57731 52.7489C2.6275 52.9995 2.60171 53.2593 2.50324 53.4954C2.40478 53.7314 2.23802 53.9332 2.02408 54.0751C1.81015 54.2171 1.55868 54.2928 1.30138 54.2928C0.956346 54.2928 0.625369 54.1567 0.381395 53.9145C0.137421 53.6722 0.000396413 53.3436 0.000396385 53.001Z" fill="#585858"/>
<path fill-rule="evenodd" clip-rule="evenodd" d="M260.398 27.1186C260.398 26.8631 260.474 26.6133 260.617 26.4009C260.76 26.1884 260.963 26.0228 261.201 25.9251C261.439 25.8273 261.7 25.8017 261.953 25.8515C262.205 25.9014 262.437 26.0244 262.619 26.2051C262.801 26.3858 262.925 26.616 262.975 26.8666C263.025 27.1172 262.999 27.3769 262.901 27.613C262.802 27.8491 262.636 28.0508 262.422 28.1928C262.208 28.3348 261.956 28.4105 261.699 28.4105C261.354 28.4105 261.023 28.2744 260.779 28.0321C260.535 27.7899 260.398 27.4613 260.398 27.1186Z" fill="#585858"/>
<path fill-rule="evenodd" clip-rule="evenodd" d="M234.392 27.1186C234.392 26.8631 234.468 26.6133 234.611 26.4009C234.754 26.1884 234.957 26.0228 235.195 25.9251C235.432 25.8273 235.694 25.8017 235.946 25.8515C236.199 25.9014 236.43 26.0244 236.612 26.2051C236.794 26.3858 236.918 26.616 236.968 26.8666C237.019 27.1172 236.993 27.3769 236.894 27.613C236.796 27.8491 236.629 28.0508 236.415 28.1928C236.201 28.3348 235.95 28.4105 235.692 28.4105C235.347 28.4105 235.017 28.2744 234.773 28.0321C234.529 27.7899 234.392 27.4613 234.392 27.1186Z" fill="#585858"/>
<path fill-rule="evenodd" clip-rule="evenodd" d="M208.317 27.1186C208.317 26.8631 208.393 26.6133 208.536 26.4009C208.679 26.1884 208.882 26.0228 209.12 25.9251C209.358 25.8273 209.619 25.8017 209.872 25.8515C210.124 25.9014 210.356 26.0244 210.538 26.2051C210.72 26.3858 210.844 26.616 210.894 26.8666C210.944 27.1172 210.918 27.3769 210.82 27.613C210.721 27.8491 210.554 28.0508 210.34 28.1928C210.127 28.3348 209.875 28.4105 209.618 28.4105C209.273 28.4105 208.942 28.2744 208.698 28.0321C208.454 27.7899 208.317 27.4613 208.317 27.1186Z" fill="#585858"/>
<path fill-rule="evenodd" clip-rule="evenodd" d="M182.287 27.1186C182.287 26.8631 182.363 26.6133 182.506 26.4009C182.649 26.1884 182.852 26.0228 183.09 25.9251C183.328 25.8273 183.589 25.8017 183.842 25.8515C184.094 25.9014 184.326 26.0244 184.508 26.2051C184.69 26.3858 184.814 26.616 184.864 26.8666C184.914 27.1172 184.888 27.3769 184.79 27.613C184.691 27.8491 184.525 28.0508 184.311 28.1928C184.097 28.3348 183.845 28.4105 183.588 28.4105C183.243 28.4105 182.912 28.2744 182.668 28.0321C182.424 27.7899 182.287 27.4613 182.287 27.1186Z" fill="#585858"/>
<path fill-rule="evenodd" clip-rule="evenodd" d="M156.245 27.1186C156.245 26.8631 156.322 26.6133 156.465 26.4009C156.607 26.1884 156.811 26.0228 157.048 25.9251C157.286 25.8273 157.548 25.8017 157.8 25.8515C158.052 25.9014 158.284 26.0244 158.466 26.2051C158.648 26.3858 158.772 26.616 158.822 26.8666C158.872 27.1172 158.847 27.3769 158.748 27.613C158.65 27.8491 158.483 28.0508 158.269 28.1928C158.055 28.3348 157.803 28.4105 157.546 28.4105C157.201 28.4105 156.87 28.2744 156.626 28.0321C156.382 27.7899 156.245 27.4613 156.245 27.1186Z" fill="#585858"/>
<path fill-rule="evenodd" clip-rule="evenodd" d="M130.205 27.1186C130.205 26.8631 130.281 26.6133 130.424 26.4009C130.567 26.1884 130.77 26.0228 131.008 25.9251C131.246 25.8273 131.507 25.8017 131.76 25.8515C132.012 25.9014 132.244 26.0244 132.426 26.2051C132.608 26.3858 132.731 26.616 132.782 26.8666C132.832 27.1172 132.806 27.3769 132.708 27.613C132.609 27.8491 132.442 28.0508 132.228 28.1928C132.015 28.3348 131.763 28.4105 131.506 28.4105C131.161 28.4105 130.83 28.2744 130.586 28.0321C130.342 27.7899 130.205 27.4613 130.205 27.1186Z" fill="#585858"/>
<path fill-rule="evenodd" clip-rule="evenodd" d="M104.175 27.1186C104.175 26.8631 104.251 26.6133 104.394 26.4009C104.537 26.1884 104.74 26.0228 104.978 25.9251C105.216 25.8273 105.477 25.8017 105.73 25.8515C105.982 25.9014 106.214 26.0244 106.396 26.2051C106.578 26.3858 106.702 26.616 106.752 26.8666C106.802 27.1172 106.776 27.3769 106.678 27.613C106.579 27.8491 106.413 28.0508 106.199 28.1928C105.985 28.3348 105.733 28.4105 105.476 28.4105C105.131 28.4105 104.8 28.2744 104.556 28.0321C104.312 27.7899 104.175 27.4613 104.175 27.1186Z" fill="#585858"/>
<path fill-rule="evenodd" clip-rule="evenodd" d="M78.1345 27.1186C78.1345 26.8631 78.2108 26.6133 78.3537 26.4009C78.4967 26.1884 78.6999 26.0228 78.9376 25.9251C79.1753 25.8273 79.4368 25.8017 79.6892 25.8515C79.9415 25.9014 80.1734 26.0244 80.3554 26.2051C80.5373 26.3858 80.6611 26.616 80.7113 26.8666C80.7615 27.1172 80.7358 27.3769 80.6374 27.613C80.5389 27.8491 80.3722 28.0508 80.1582 28.1928C79.9443 28.3348 79.6927 28.4105 79.4354 28.4105C79.0903 28.4105 78.7595 28.2744 78.5155 28.0321C78.2715 27.7899 78.1345 27.4613 78.1345 27.1186Z" fill="#585858"/>
<path fill-rule="evenodd" clip-rule="evenodd" d="M52.0927 27.1186C52.0927 26.8631 52.169 26.6133 52.312 26.4009C52.4549 26.1884 52.6582 26.0228 52.8959 25.9251C53.1336 25.8273 53.3951 25.8017 53.6475 25.8515C53.8998 25.9014 54.1317 26.0244 54.3136 26.2051C54.4956 26.3858 54.6194 26.616 54.6696 26.8666C54.7198 27.1172 54.694 27.3769 54.5955 27.613C54.4971 27.8491 54.3304 28.0508 54.1165 28.1928C53.9026 28.3348 53.651 28.4105 53.3937 28.4105C53.2228 28.4105 53.0537 28.3771 52.8959 28.3122C52.738 28.2473 52.5946 28.1521 52.4738 28.0321C52.353 27.9122 52.2572 27.7697 52.1918 27.613C52.1264 27.4563 52.0927 27.2883 52.0927 27.1186Z" fill="#585858"/>
<path fill-rule="evenodd" clip-rule="evenodd" d="M26.0641 27.1186C26.0641 26.8631 26.1405 26.6133 26.2834 26.4009C26.4264 26.1884 26.6295 26.0228 26.8672 25.9251C27.1049 25.8273 27.3666 25.8017 27.6189 25.8515C27.8713 25.9014 28.103 26.0244 28.2849 26.2051C28.4669 26.3858 28.5908 26.616 28.641 26.8666C28.6912 27.1172 28.6654 27.3769 28.567 27.613C28.4685 27.8491 28.3017 28.0508 28.0878 28.1928C27.8739 28.3348 27.6224 28.4105 27.3651 28.4105C27.0201 28.4105 26.6891 28.2744 26.4451 28.0321C26.2011 27.7899 26.0641 27.4613 26.0641 27.1186Z" fill="#585858"/>
<path fill-rule="evenodd" clip-rule="evenodd" d="M0.000396385 27.1186C0.000396365 26.8631 0.0766273 26.6133 0.219577 26.4009C0.362526 26.1884 0.565748 26.0228 0.803464 25.9251C1.04118 25.8273 1.30284 25.8017 1.55519 25.8515C1.80755 25.9014 2.03928 26.0244 2.22122 26.2051C2.40316 26.3858 2.52711 26.616 2.57731 26.8666C2.6275 27.1172 2.60171 27.3769 2.50324 27.613C2.40478 27.8491 2.23802 28.0508 2.02408 28.1928C1.81015 28.3348 1.55868 28.4105 1.30138 28.4105C0.956346 28.4105 0.625369 28.2744 0.381395 28.0321C0.137421 27.7899 0.000396413 27.4613 0.000396385 27.1186Z" fill="#585858"/>
<path fill-rule="evenodd" clip-rule="evenodd" d="M260.398 1.2919C260.398 1.03639 260.474 0.786618 260.617 0.574166C260.76 0.361715 260.963 0.196121 261.201 0.0983399C261.439 0.00055898 261.7 -0.0250236 261.953 0.0248247C262.205 0.0746728 262.437 0.197722 262.619 0.378397C262.801 0.559073 262.925 0.78926 262.975 1.03986C263.025 1.29047 262.999 1.55022 262.901 1.78628C262.802 2.02235 262.636 2.22412 262.422 2.36608C262.208 2.50803 261.956 2.5838 261.699 2.5838C261.354 2.5838 261.023 2.4477 260.779 2.20542C260.535 1.96314 260.398 1.63453 260.398 1.2919Z" fill="#585858"/>
<path fill-rule="evenodd" clip-rule="evenodd" d="M234.391 1.2919C234.391 1.03639 234.468 0.786618 234.611 0.574166C234.753 0.361715 234.957 0.196121 235.194 0.0983399C235.432 0.00055898 235.694 -0.0250236 235.946 0.0248247C236.198 0.0746728 236.43 0.197722 236.612 0.378397C236.794 0.559073 236.918 0.78926 236.968 1.03986C237.018 1.29047 236.993 1.55022 236.894 1.78628C236.796 2.02235 236.629 2.22412 236.415 2.36608C236.201 2.50803 235.949 2.5838 235.692 2.5838C235.347 2.5838 235.016 2.4477 234.772 2.20542C234.528 1.96314 234.391 1.63453 234.391 1.2919Z" fill="#585858"/>
<path fill-rule="evenodd" clip-rule="evenodd" d="M208.317 1.2919C208.317 1.03639 208.393 0.786618 208.536 0.574166C208.679 0.361715 208.882 0.196121 209.12 0.0983399C209.358 0.00055898 209.619 -0.0250236 209.872 0.0248247C210.124 0.0746728 210.356 0.197722 210.538 0.378397C210.72 0.559073 210.844 0.78926 210.894 1.03986C210.944 1.29047 210.918 1.55022 210.82 1.78628C210.721 2.02235 210.554 2.22412 210.34 2.36608C210.127 2.50803 209.875 2.5838 209.618 2.5838C209.273 2.5838 208.942 2.4477 208.698 2.20542C208.454 1.96314 208.317 1.63453 208.317 1.2919Z" fill="#585858"/>
<path fill-rule="evenodd" clip-rule="evenodd" d="M182.286 1.29195C182.293 1.03796 182.375 0.791558 182.522 0.583549C182.669 0.37554 182.874 0.215171 183.112 0.122494C183.351 0.0298172 183.611 0.00894914 183.861 0.0625063C184.111 0.116063 184.34 0.241654 184.519 0.423588C184.697 0.605521 184.818 0.835707 184.865 1.08535C184.913 1.335 184.885 1.59302 184.786 1.82715C184.686 2.06127 184.52 2.2611 184.307 2.40163C184.093 2.54217 183.843 2.61716 183.587 2.61725C183.242 2.61725 182.912 2.48114 182.668 2.23887C182.424 1.99659 182.286 1.66799 182.286 1.32536" fill="#585858"/>
<path fill-rule="evenodd" clip-rule="evenodd" d="M156.245 1.2919C156.245 1.03639 156.322 0.786618 156.465 0.574166C156.607 0.361715 156.811 0.196121 157.048 0.0983399C157.286 0.00055898 157.548 -0.0250236 157.8 0.0248247C158.052 0.0746728 158.284 0.197722 158.466 0.378397C158.648 0.559073 158.772 0.78926 158.822 1.03986C158.872 1.29047 158.847 1.55022 158.748 1.78628C158.65 2.02235 158.483 2.22412 158.269 2.36608C158.055 2.50803 157.803 2.5838 157.546 2.5838C157.201 2.5838 156.87 2.4477 156.626 2.20542C156.382 1.96314 156.245 1.63453 156.245 1.2919Z" fill="#585858"/>
<path fill-rule="evenodd" clip-rule="evenodd" d="M130.205 1.2919C130.205 1.03639 130.281 0.786618 130.424 0.574166C130.567 0.361715 130.77 0.196121 131.008 0.0983399C131.246 0.00055898 131.507 -0.0250236 131.76 0.0248247C132.012 0.0746728 132.244 0.197722 132.426 0.378397C132.608 0.559073 132.731 0.78926 132.782 1.03986C132.832 1.29047 132.806 1.55022 132.708 1.78628C132.609 2.02235 132.442 2.22412 132.228 2.36608C132.015 2.50803 131.763 2.5838 131.506 2.5838C131.161 2.5838 130.83 2.4477 130.586 2.20542C130.342 1.96314 130.205 1.63453 130.205 1.2919Z" fill="#585858"/>
<path fill-rule="evenodd" clip-rule="evenodd" d="M104.176 1.29197C104.182 1.03567 104.266 0.78721 104.415 0.578213C104.565 0.369217 104.774 0.209142 105.015 0.11836C105.257 0.027577 105.52 0.0101992 105.771 0.0684317C106.023 0.126664 106.251 0.257865 106.427 0.445355C106.603 0.632845 106.719 0.868133 106.76 1.12127C106.801 1.3744 106.766 1.63394 106.658 1.86684C106.55 2.09974 106.374 2.29546 106.154 2.4291C105.934 2.56274 105.678 2.62825 105.42 2.61729C105.075 2.61729 104.744 2.48118 104.501 2.2389C104.257 1.99662 104.119 1.66802 104.119 1.32538" fill="#585858"/>
<path fill-rule="evenodd" clip-rule="evenodd" d="M78.1345 1.2919C78.1345 1.03639 78.2108 0.786618 78.3537 0.574166C78.4967 0.361715 78.6999 0.196121 78.9376 0.0983399C79.1753 0.00055898 79.4368 -0.0250236 79.6892 0.0248247C79.9415 0.0746728 80.1734 0.197722 80.3554 0.378397C80.5373 0.559073 80.6611 0.78926 80.7113 1.03986C80.7615 1.29047 80.7358 1.55022 80.6374 1.78628C80.5389 2.02235 80.3722 2.22412 80.1582 2.36608C79.9443 2.50803 79.6927 2.5838 79.4354 2.5838C79.0903 2.5838 78.7595 2.4477 78.5155 2.20542C78.2715 1.96314 78.1345 1.63453 78.1345 1.2919Z" fill="#585858"/>
<path fill-rule="evenodd" clip-rule="evenodd" d="M52.0927 1.2919C52.0927 1.03639 52.169 0.786618 52.312 0.574166C52.4549 0.361715 52.6582 0.196121 52.8959 0.0983399C53.1336 0.00055898 53.3951 -0.0250236 53.6475 0.0248247C53.8998 0.0746728 54.1317 0.197722 54.3136 0.378397C54.4956 0.559073 54.6194 0.78926 54.6696 1.03986C54.7198 1.29047 54.694 1.55022 54.5955 1.78628C54.4971 2.02235 54.3304 2.22412 54.1165 2.36608C53.9026 2.50803 53.651 2.5838 53.3937 2.5838C53.2228 2.5838 53.0537 2.55038 52.8959 2.48546C52.738 2.42053 52.5946 2.32538 52.4738 2.20542C52.353 2.08545 52.2572 1.94302 52.1918 1.78628C52.1264 1.62954 52.0927 1.46155 52.0927 1.2919Z" fill="#585858"/>
<path fill-rule="evenodd" clip-rule="evenodd" d="M26.0641 1.2919C26.0641 1.03639 26.1405 0.786618 26.2834 0.574166C26.4264 0.361715 26.6295 0.196121 26.8672 0.0983399C27.1049 0.00055898 27.3666 -0.0250236 27.6189 0.0248247C27.8713 0.0746728 28.103 0.197722 28.2849 0.378397C28.4669 0.559073 28.5908 0.78926 28.641 1.03986C28.6912 1.29047 28.6654 1.55022 28.567 1.78628C28.4685 2.02235 28.3017 2.22412 28.0878 2.36608C27.8739 2.50803 27.6224 2.5838 27.3651 2.5838C27.0201 2.5838 26.6891 2.4477 26.4451 2.20542C26.2011 1.96314 26.0641 1.63453 26.0641 1.2919Z" fill="#585858"/>
<path fill-rule="evenodd" clip-rule="evenodd" d="M0.000396385 1.2919C0.000396365 1.03639 0.0766273 0.786618 0.219577 0.574166C0.362526 0.361715 0.565748 0.196121 0.803464 0.0983399C1.04118 0.00055898 1.30284 -0.0250236 1.55519 0.0248247C1.80755 0.0746728 2.03928 0.197722 2.22122 0.378397C2.40316 0.559073 2.52711 0.78926 2.57731 1.03986C2.6275 1.29047 2.60171 1.55022 2.50324 1.78628C2.40478 2.02235 2.23802 2.22412 2.02408 2.36608C1.81015 2.50803 1.55868 2.5838 1.30138 2.5838C0.956346 2.5838 0.625369 2.4477 0.381395 2.20542C0.137421 1.96314 0.000396413 1.63453 0.000396385 1.2919Z" fill="#585858"/>
</g>
</g>
<defs>
<clipPath id="clip0_12_5">
<rect width="287" height="263" fill="white" transform="translate(263) rotate(90)"/>
</clipPath>
<clipPath id="clip1_12_5">
<rect width="263" height="287" fill="white" transform="translate(263 287) rotate(180)"/>
</clipPath>
</defs>
</svg>
